{
    "asset" : {
        "generator" : "Khronos glTF Blender I/O v3.4.50",
        "version" : "2.0"
    },
    "scene" : 0,
    "scenes" : [
        {
            "name" : "Scene",
            "nodes" : [
                0
            ]
        }
    ],
    "nodes" : [
        {
            "mesh" : 0,
            "name" : "Alambre",
            "scale" : [
                0.22602897882461548,
                0.22602897882461548,
                0.22602897882461548
            ],
            "translation" : [
                -0.8705048561096191,
                0.05572878196835518,
                -0.0948466882109642
            ]
        }
    ],
    "materials" : [
        {
            "doubleSided" : true,
            "name" : "Material.001",
            "pbrMetallicRoughness" : {
                "metallicRoughnessTexture" : {
                    "index" : 0
                }
            }
        }
    ],
    "meshes" : [
        {
            "name" : "Plane.001",
            "primitives" : [
                {
                    "attributes" : {
                        "POSITION" : 0,
                        "TEXCOORD_0" : 1,
                        "NORMAL" : 2
                    },
                    "indices" : 3,
                    "material" : 0
                }
            ]
        }
    ],
    "textures" : [
        {
            "sampler" : 0,
            "source" : 0
        }
    ],
    "images" : [
        {
            "bufferView" : 4,
            "mimeType" : "image/png",
            "name" : "Image"
        }
    ],
    "accessors" : [
        {
            "bufferView" : 0,
            "componentType" : 5126,
            "count" : 4676,
            "max" : [
                10.363164901733398,
                8.33332633972168,
                4.579324245452881
            ],
            "min" : [
                -2.3631625175476074,
                -8.333325386047363,
                -4.579322814941406
            ],
            "type" : "VEC3"
        },
        {
            "bufferView" : 1,
            "componentType" : 5126,
            "count" : 4676,
            "type" : "VEC2"
        },
        {
            "bufferView" : 2,
            "componentType" : 5126,
            "count" : 4676,
            "type" : "VEC3"
        },
        {
            "bufferView" : 3,
            "componentType" : 5123,
            "count" : 28032,
            "type" : "SCALAR"
        }
    ],
    "bufferViews" : [
        {
            "buffer" : 0,
            "byteLength" : 56112,
            "byteOffset" : 0,
            "target" : 34962
        },
        {
            "buffer" : 0,
            "byteLength" : 37408,
            "byteOffset" : 56112,
            "target" : 34962
        },
        {
            "buffer" : 0,
            "byteLength" : 56112,
            "byteOffset" : 93520,
            "target" : 34962
        },
        {
            "buffer" : 0,
            "byteLength" : 56064,
            "byteOffset" : 149632,
            "target" : 34963
        },
        {
            "buffer" : 0,
            "byteLength" : 90,
            "byteOffset" : 205696
        }
    ],
    "samplers" : [
        {
            "magFilter" : 9729,
            "minFilter" : 9987
        }
    ],
    "buffers" : [
        {
            "byteLength" : 205788,
            "uri" : "data:application/octet-stream;base64,"
        }
    ]
}
